<?xml version="1.0" encoding="UTF-8"?>
<svg width="911px" height="124px" viewBox="0 0 911 124" version="1.1" xmlns="http://www.w3.org/2000/svg" xmlns:xlink="http://www.w3.org/1999/xlink">
    <!-- Generator: Sketch 52 (66869) - http://www.bohemiancoding.com/sketch -->
    <title>20181004_Converse_Logo_A_CONVERSATIONALAI</title>
    <desc>Created with Sketch.</desc>
    <g id="Converse_Logo_A_CONVERSATIONALAI" stroke="none" stroke-width="1" fill="none" fill-rule="evenodd">
        <g id="Converse_Logo" transform="translate(12.000000, 12.000000)" fill-rule="nonzero">
            <circle id="Oval" fill="#01CCAA" cx="66.67" cy="34.14" r="13.09"></circle>
            <path d="M86.86,58.51 C84.3089886,58.5085099 82.0098274,56.9711456 81.0337992,54.6142345 C80.057771,52.2573234 80.5969072,49.5445824 82.4,47.74 C88.2942081,41.8577993 90.0605341,33.0022192 86.8741064,25.3088031 C83.6876787,17.6153869 76.177179,12.6020446 67.85,12.61 C62.3937788,12.5888721 57.1553619,14.749044 53.3,18.61 L31.41,40.46 C29.8165955,42.0516182 27.4951107,42.6722629 25.3200267,42.0881432 C23.1449426,41.5040236 21.4467062,39.8038811 20.8650266,37.6281432 C20.2833471,35.4524053 20.9065954,33.1316182 22.5,31.54 L44.37,9.68 C50.5894682,3.45266942 59.0388414,-0.0322020195 67.84,-3.66360046e-15 C76.6446741,-0.0159927474 85.0928978,3.47662656 91.3159372,9.70529595 C97.5389766,15.9339654 101.023955,24.385344 101,33.19 C101.024259,41.995486 97.5283336,50.4454714 91.29,56.66 C90.1166171,57.8390267 88.5234,58.5043657 86.86,58.51 Z" id="Shape" fill="#01CCAA"></path>
            <circle id="Oval" fill="#000000" cx="35.35" cy="65.84" r="13.09"></circle>
            <path d="M34.17,100 C20.7506253,99.9797625 8.66131529,91.8877464 3.52736074,79.4892571 C-1.60659382,67.0907678 1.22319702,52.8210648 10.7,43.32 C13.1826628,40.9761351 17.0793247,41.0321522 19.4935862,43.4464138 C21.9078478,45.8606753 21.9638649,49.7573372 19.62,52.24 C14.4146402,57.4400006 12.3788568,65.0220258 14.2795096,72.1299999 C16.1801625,79.237974 21.7284972,84.7920267 28.8345097,86.7 C35.9405223,88.6079733 43.5246404,86.5800008 48.73,81.38 L70.61,59.52 C73.07319,57.0595714 77.0645714,57.06181 79.525,59.525 C81.9854286,61.98819 81.98319,65.9795714 79.52,68.44 L57.64,90.3 C51.4187962,96.5271424 42.9722926,100.018028 34.17,100 Z" id="Shape" fill="#000000"></path>
        </g>
        <path d="M154.376,76.936 C149.719977,76.936 145.676017,76.3000064 142.244,75.028 C138.811983,73.7559936 135.968011,71.9680115 133.712,69.664 C131.455989,67.3599885 129.776006,64.5880162 128.672,61.348 C127.567994,58.1079838 127.016,54.5200197 127.016,50.584 L127.016,50.008 C127.016,46.0239801 127.687993,42.4120162 129.032,39.172 C130.376007,35.9319838 132.235988,33.1720114 134.612,30.892 C136.988012,28.6119886 139.807984,26.8480062 143.072,25.6 C146.336016,24.3519938 149.863981,23.728 153.656,23.728 C157.112017,23.728 160.279986,24.1359959 163.16,24.952 C166.040014,25.7680041 168.535989,27.0039917 170.648,28.66 C172.760011,30.3160083 174.463994,32.4159873 175.76,34.96 C177.056006,37.5040127 177.847999,40.5279825 178.136,44.032 L161.288,44.032 C161.047999,41.631988 160.304006,39.7960064 159.056,38.524 C157.807994,37.2519936 156.032012,36.616 153.728,36.616 C150.751985,36.616 148.424008,37.7439887 146.744,40 C145.063992,42.2560113 144.224,45.5679782 144.224,49.936 L144.224,50.512 C144.224,54.8320216 145.063992,58.1319886 146.744,60.412 C148.424008,62.6920114 150.847984,63.832 154.016,63.832 C156.320012,63.832 158.239992,63.2200061 159.776,61.996 C161.312008,60.7719939 162.223999,58.864013 162.512,56.272 L178.784,56.272 C178.543999,59.680017 177.788006,62.6679872 176.516,65.236 C175.243994,67.8040128 173.528011,69.9519914 171.368,71.68 C169.207989,73.4080086 166.688014,74.7159956 163.808,75.604 C160.927986,76.4920044 157.784017,76.936 154.376,76.936 Z M208.4,64.12 C211.616016,64.12 214.17199,62.9320119 216.068,60.556 C217.964009,58.1799881 218.912,54.8320216 218.912,50.512 L218.912,49.936 C218.912,45.5679782 217.95201,42.2320115 216.032,39.928 C214.11199,37.6239885 211.520016,36.472 208.256,36.472 C205.087984,36.472 202.556009,37.6119886 200.66,39.892 C198.76399,42.1720114 197.816,45.5199779 197.816,49.936 L197.816,50.512 C197.816,54.9280221 198.76399,58.2999884 200.66,60.628 C202.556009,62.9560116 205.135984,64.12 208.4,64.12 Z M207.968,76.936 C203.743979,76.936 199.952017,76.3000064 196.592,75.028 C193.231983,73.7559936 190.376012,71.9560116 188.024,69.628 C185.671988,67.2999884 183.872006,64.5160162 182.624,61.276 C181.375994,58.0359838 180.752,54.4720194 180.752,50.584 L180.752,50.008 C180.752,46.0239801 181.459993,42.4120162 182.876,39.172 C184.292007,35.9319838 186.235988,33.1720114 188.708,30.892 C191.180012,28.6119886 194.095983,26.8480062 197.456,25.6 C200.816017,24.3519938 204.415981,23.728 208.256,23.728 C212.19202,23.728 215.851983,24.3159941 219.236,25.492 C222.620017,26.6680059 225.547988,28.359989 228.02,30.568 C230.492012,32.776011 232.423993,35.475984 233.816,38.668 C235.208007,41.860016 235.904,45.4959796 235.904,49.576 L235.904,50.152 C235.904,54.1840202 235.244007,57.8439836 233.924,61.132 C232.603993,64.4200164 230.720012,67.2279884 228.272,69.556 C225.823988,71.8840116 222.884017,73.6959935 219.452,74.992 C216.019983,76.2880065 212.192021,76.936 207.968,76.936 Z M241.328,24.52 L259.616,24.52 L274.232,51.736 L274.232,24.52 L288.56,24.52 L288.56,76 L272.936,76 L255.728,45.184 L255.728,76 L241.328,76 L241.328,24.52 Z M292.76,24.52 L310.4,24.52 L319.976,59.008 L329.552,24.52 L344.816,24.52 L328.184,76 L309.752,76 L292.76,24.52 Z M348.944,24.52 L385.52,24.52 L385.52,37.048 L365.216,37.048 L365.216,44.32 L381.344,44.32 L381.344,55.768 L365.216,55.768 L365.216,63.472 L386.672,63.472 L386.672,76 L348.944,76 L348.944,24.52 Z M392.384,24.52 L413.408,24.52 C420.560036,24.52 425.935982,25.923986 429.536,28.732 C433.136018,31.540014 434.936,35.7039724 434.936,41.224 L434.936,41.512 C434.936,45.0640178 434.120008,47.9079893 432.488,50.044 C430.855992,52.1800107 428.768012,53.8239942 426.224,54.976 L437.96,76 L420.824,76 L411.248,58.36 L408.656,58.36 L408.656,76 L392.384,76 L392.384,24.52 Z M412.472,47.848 C416.936022,47.848 419.168,45.9760187 419.168,42.232 L419.168,41.944 C419.168,40.0719906 418.616005,38.740004 417.512,37.948 C416.407994,37.155996 414.752011,36.76 412.544,36.76 L408.656,36.76 L408.656,47.848 L412.472,47.848 Z M460.952,76.936 C453.655963,76.936 448.100019,75.4840145 444.284,72.58 C440.467981,69.6759855 438.464001,65.320029 438.272,59.512 L453.752,59.512 C453.8,60.3280041 453.955998,61.0959964 454.22,61.816 C454.484001,62.5360036 454.891997,63.1599974 455.444,63.688 C455.996002,64.2160026 456.715995,64.6359984 457.604,64.948 C458.492004,65.2600016 459.607993,65.416 460.952,65.416 C462.872009,65.416 464.299995,65.020004 465.236,64.228 C466.172004,63.435996 466.64,62.4160062 466.64,61.168 C466.64,59.8239933 466.112005,58.852003 465.056,58.252 C463.999994,57.651997 462.080014,57.1600019 459.296,56.776 C455.599981,56.3439978 452.480012,55.7440038 449.936,54.976 C447.391987,54.2079962 445.340008,53.1640066 443.78,51.844 C442.219992,50.5239934 441.104003,48.9160095 440.432,47.02 C439.759996,45.1239905 439.424,42.8560132 439.424,40.216 C439.424,37.8639882 439.891995,35.6800101 440.828,33.664 C441.764004,31.6479899 443.119991,29.9080073 444.896,28.444 C446.672009,26.9799927 448.831987,25.8400041 451.376,25.024 C453.920012,24.2079959 456.799984,23.8 460.016,23.8 C466.448032,23.8 471.403982,25.1199868 474.884,27.76 C478.364017,30.4000132 480.319998,34.5519717 480.752,40.216 L465.632,40.216 C465.439999,38.6319921 464.888004,37.4080043 463.976,36.544 C463.063995,35.6799957 461.744008,35.248 460.016,35.248 C458.335991,35.248 457.064004,35.5959965 456.2,36.292 C455.335995,36.9880035 454.904,37.8879945 454.904,38.992 C454.904,39.6160031 455.011999,40.1559977 455.228,40.612 C455.444001,41.0680023 455.827997,41.4639983 456.38,41.8 C456.932002,42.1360017 457.663995,42.4239988 458.576,42.664 C459.488004,42.9040012 460.663993,43.119999 462.104,43.312 C465.320016,43.6480017 468.187987,44.1399968 470.708,44.788 C473.228012,45.4360032 475.339991,46.3719939 477.044,47.596 C478.748008,48.8200061 480.043995,50.3799905 480.932,52.276 C481.820004,54.1720095 482.264,56.5599856 482.264,59.44 C482.264,61.840012 481.796004,64.0959894 480.86,66.208 C479.923995,68.3200106 478.556009,70.1679921 476.756,71.752 C474.955991,73.3360079 472.736013,74.5959953 470.096,75.532 C467.455987,76.4680047 464.408017,76.936 460.952,76.936 Z M498.128,24.52 L519.224,24.52 L535.352,76 L518.072,76 L515.696,67.432 L499.424,67.432 L497.12,76 L481.928,76 L498.128,24.52 Z M502.52,56.344 L512.672,56.344 L507.632,37.696 L502.52,56.344 Z M544.52,37.048 L531.56,37.048 L531.56,24.52 L573.968,24.52 L573.968,37.048 L560.936,37.048 L560.936,76 L544.52,76 L544.52,37.048 Z M579.104,24.52 L595.592,24.52 L595.592,76 L579.104,76 L579.104,24.52 Z M628.952,64.12 C632.168016,64.12 634.72399,62.9320119 636.62,60.556 C638.516009,58.1799881 639.464,54.8320216 639.464,50.512 L639.464,49.936 C639.464,45.5679782 638.504009,42.2320115 636.584,39.928 C634.66399,37.6239885 632.072016,36.472 628.808,36.472 C625.639984,36.472 623.108009,37.6119886 621.212,39.892 C619.31599,42.1720114 618.368,45.5199779 618.368,49.936 L618.368,50.512 C618.368,54.9280221 619.31599,58.2999884 621.212,60.628 C623.108009,62.9560116 625.687983,64.12 628.952,64.12 Z M628.52,76.936 C624.295978,76.936 620.504016,76.3000064 617.144,75.028 C613.783983,73.7559936 610.928011,71.9560116 608.576,69.628 C606.223988,67.2999884 604.424006,64.5160162 603.176,61.276 C601.927993,58.0359838 601.304,54.4720194 601.304,50.584 L601.304,50.008 C601.304,46.0239801 602.011992,42.4120162 603.428,39.172 C604.844007,35.9319838 606.787987,33.1720114 609.26,30.892 C611.732012,28.6119886 614.647983,26.8480062 618.008,25.6 C621.368016,24.3519938 624.96798,23.728 628.808,23.728 C632.744019,23.728 636.403983,24.3159941 639.788,25.492 C643.172016,26.6680059 646.099987,28.359989 648.572,30.568 C651.044012,32.776011 652.975993,35.475984 654.368,38.668 C655.760006,41.860016 656.456,45.4959796 656.456,49.576 L656.456,50.152 C656.456,54.1840202 655.796006,57.8439836 654.476,61.132 C653.155993,64.4200164 651.272012,67.2279884 648.824,69.556 C646.375987,71.8840116 643.436017,73.6959935 640.004,74.992 C636.571982,76.2880065 632.744021,76.936 628.52,76.936 Z M661.879999,24.52 L680.167999,24.52 L694.783999,51.736 L694.783999,24.52 L709.111999,24.52 L709.111999,76 L693.487999,76 L676.279999,45.184 L676.279999,76 L661.879999,76 L661.879999,24.52 Z M729.511999,24.52 L750.607999,24.52 L766.735999,76 L749.455999,76 L747.079999,67.432 L730.807999,67.432 L728.503999,76 L713.311999,76 L729.511999,24.52 Z M733.903999,56.344 L744.055999,56.344 L739.015999,37.696 L733.903999,56.344 Z M770.863999,24.52 L787.207999,24.52 L787.207999,63.4 L805.927999,63.4 L805.927999,76 L770.863999,76 L770.863999,24.52 Z M835.855999,24.52 L856.951999,24.52 L873.079999,76 L855.799999,76 L853.423999,67.432 L837.151999,67.432 L834.847999,76 L819.655999,76 L835.855999,24.52 Z M840.247999,56.344 L850.399999,56.344 L845.359999,37.696 L840.247999,56.344 Z M877.423999,24.52 L893.911999,24.52 L893.911999,76 L877.423999,76 L877.423999,24.52 Z" id="CONVERSATIONAL-AI" fill="#000000"></path>
        <path d="M131.96,83.84 L133.736,83.84 L139.904,101 L138.56,101 L136.664,95.744 L128.936,95.744 L127.064,101 L125.792,101 L131.96,83.84 Z M129.32,94.664 L136.28,94.664 L132.8,84.944 L129.32,94.664 Z M151.472,101.192 C150.239994,101.192 149.136005,100.984002 148.16,100.568 C147.183995,100.151998 146.348004,99.5640038 145.652,98.804 C144.955997,98.0439962 144.424002,97.1320053 144.056,96.068 C143.687998,95.0039947 143.504,93.8240065 143.504,92.528 L143.504,92.336 C143.504,91.0719937 143.707998,89.9080053 144.116,88.844 C144.524002,87.7799947 145.087996,86.8600039 145.808,86.084 C146.528004,85.3079961 147.371995,84.7040022 148.34,84.272 C149.308005,83.8399978 150.351994,83.624 151.472,83.624 C152.352004,83.624 153.183996,83.7399988 153.968,83.972 C154.752004,84.2040012 155.451997,84.5439978 156.068,84.992 C156.684003,85.4400022 157.195998,85.9999966 157.604,86.672 C158.012002,87.3440034 158.279999,88.1199956 158.408,89 L157.064,89 C156.791999,87.607993 156.196005,86.5440037 155.276,85.808 C154.355995,85.0719963 153.096008,84.704 151.496,84.704 C150.535995,84.704 149.652004,84.8879982 148.844,85.256 C148.035996,85.6240018 147.336003,86.1399967 146.744,86.804 C146.151997,87.4680033 145.692002,88.2679953 145.364,89.204 C145.035998,90.1400047 144.872,91.1759943 144.872,92.312 L144.872,92.504 C144.872,93.6560058 145.023999,94.6999953 145.328,95.636 C145.632002,96.5720047 146.071997,97.3679967 146.648,98.024 C147.224003,98.6800033 147.919996,99.1839982 148.736,99.536 C149.552004,99.8880018 150.471995,100.064 151.496,100.064 C153.048008,100.064 154.343995,99.6720039 155.384,98.888 C156.424005,98.1039961 157.079999,96.9680074 157.352,95.48 L158.6,95.48 C158.439999,96.4080046 158.152002,97.2279964 157.736,97.94 C157.319998,98.6520036 156.804003,99.2479976 156.188,99.728 C155.571997,100.208002 154.864004,100.571999 154.064,100.82 C153.263996,101.068001 152.400005,101.192 151.472,101.192 Z M171.368,101.192 C170.135994,101.192 169.032005,100.984002 168.056,100.568 C167.079995,100.151998 166.244004,99.5640038 165.548,98.804 C164.851997,98.0439962 164.320002,97.1320053 163.952,96.068 C163.583998,95.0039947 163.4,93.8240065 163.4,92.528 L163.4,92.336 C163.4,91.0719937 163.603998,89.9080053 164.012,88.844 C164.420002,87.7799947 164.983997,86.8600039 165.704,86.084 C166.424004,85.3079961 167.267995,84.7040022 168.236,84.272 C169.204005,83.8399978 170.247995,83.624 171.368,83.624 C172.248005,83.624 173.079996,83.7399988 173.864,83.972 C174.648004,84.2040012 175.347997,84.5439978 175.964,84.992 C176.580003,85.4400022 177.091998,85.9999966 177.5,86.672 C177.908002,87.3440034 178.176,88.1199956 178.304,89 L176.96,89 C176.687999,87.607993 176.092005,86.5440037 175.172,85.808 C174.251996,85.0719963 172.992008,84.704 171.392,84.704 C170.431995,84.704 169.548004,84.8879982 168.74,85.256 C167.931996,85.6240018 167.232003,86.1399967 166.64,86.804 C166.047997,87.4680033 165.588002,88.2679953 165.26,89.204 C164.931999,90.1400047 164.768,91.1759943 164.768,92.312 L164.768,92.504 C164.768,93.6560058 164.919999,94.6999953 165.224,95.636 C165.528002,96.5720047 165.967997,97.3679967 166.544,98.024 C167.120003,98.6800033 167.815996,99.1839982 168.632,99.536 C169.448004,99.8880018 170.367995,100.064 171.392,100.064 C172.944008,100.064 174.239995,99.6720039 175.28,98.888 C176.320005,98.1039961 176.975999,96.9680074 177.248,95.48 L178.496,95.48 C178.335999,96.4080046 178.048002,97.2279964 177.632,97.94 C177.215998,98.6520036 176.700003,99.2479976 176.084,99.728 C175.467997,100.208002 174.760004,100.571999 173.96,100.82 C173.159996,101.068001 172.296005,101.192 171.368,101.192 Z M184.232,83.84 L194.096,83.84 L194.096,84.944 L185.576,84.944 L185.576,91.64 L192.488,91.64 L192.488,92.744 L185.576,92.744 L185.576,99.896 L194.528,99.896 L194.528,101 L184.232,101 L184.232,83.84 Z M200.312,83.84 L202.136,83.84 L211.736,99.152 L211.736,83.84 L213.008,83.84 L213.008,101 L211.424,101 L201.608,85.328 L201.608,101 L200.312,101 L200.312,83.84 Z M223.76,84.944 L218.432,84.944 L218.432,83.84 L230.408,83.84 L230.408,84.944 L225.08,84.944 L225.08,101 L223.76,101 L223.76,84.944 Z M241.736001,101.168 C239.799991,101.168 238.292006,100.632005 237.212001,99.56 C236.131995,98.4879946 235.592001,96.9200103 235.592001,94.856 L235.592001,83.84 L236.912001,83.84 L236.912001,94.712 C236.912001,96.5520092 237.319996,97.8999957 238.136001,98.756 C238.952005,99.6120043 240.159993,100.04 241.760001,100.04 C243.408009,100.04 244.643996,99.6080043 245.468001,98.744 C246.292005,97.8799957 246.704001,96.4320102 246.704001,94.4 L246.704001,83.84 L248.048001,83.84 L248.048001,94.592 C248.048001,96.6400102 247.528006,98.2479942 246.488001,99.416 C245.447995,100.584006 243.864011,101.168 241.736001,101.168 Z M254.696001,83.84 L259.400001,83.84 C260.232005,83.84 261.003997,83.9239992 261.716001,84.092 C262.428004,84.2600008 263.043998,84.5279982 263.564001,84.896 C264.084003,85.2640018 264.491999,85.7399971 264.788001,86.324 C265.084002,86.9080029 265.232001,87.6159958 265.232001,88.448 L265.232001,88.544 C265.232001,89.2640036 265.120002,89.8879974 264.896001,90.416 C264.672,90.9440026 264.364003,91.3879982 263.972001,91.748 C263.579999,92.1080018 263.112003,92.3959989 262.568001,92.612 C262.023998,92.8280011 261.432004,92.9839995 260.792001,93.08 L266.240001,101 L264.752001,101 L259.376001,93.176 L256.040001,93.176 L256.040001,101 L254.696001,101 L254.696001,83.84 Z M259.472001,92.096 C260.864008,92.096 261.947997,91.8160028 262.724001,91.256 C263.500005,90.6959972 263.888001,89.7920062 263.888001,88.544 L263.888001,88.448 C263.888001,87.7919967 263.784002,87.2400022 263.576001,86.792 C263.368,86.3439978 263.072003,85.9840014 262.688001,85.712 C262.303999,85.4399986 261.840003,85.2440006 261.296001,85.124 C260.751998,85.0039994 260.144004,84.944 259.472001,84.944 L256.040001,84.944 L256.040001,92.096 L259.472001,92.096 Z M271.736001,83.84 L281.600001,83.84 L281.600001,84.944 L273.080001,84.944 L273.080001,91.64 L279.992001,91.64 L279.992001,92.744 L273.080001,92.744 L273.080001,99.896 L282.032001,99.896 L282.032001,101 L271.736001,101 L271.736001,83.84 Z M294.728001,83.84 L296.048001,83.84 L301.784001,99.68 L307.352001,83.84 L308.600001,83.84 L302.528001,101 L300.944001,101 L294.728001,83.84 Z M314.144001,83.84 L315.488001,83.84 L315.488001,101 L314.144001,101 L314.144001,83.84 Z M322.520001,83.84 L327.224001,83.84 C328.056005,83.84 328.827998,83.9239992 329.540001,84.092 C330.252005,84.2600008 330.867999,84.5279982 331.388001,84.896 C331.908004,85.2640018 332.316,85.7399971 332.612001,86.324 C332.908003,86.9080029 333.056001,87.6159958 333.056001,88.448 L333.056001,88.544 C333.056001,89.2640036 332.944002,89.8879974 332.720001,90.416 C332.496,90.9440026 332.188003,91.3879982 331.796001,91.748 C331.403999,92.1080018 330.936004,92.3959989 330.392001,92.612 C329.847998,92.8280011 329.256004,92.9839995 328.616001,93.08 L334.064001,101 L332.576001,101 L327.200001,93.176 L323.864001,93.176 L323.864001,101 L322.520001,101 L322.520001,83.84 Z M327.296001,92.096 C328.688008,92.096 329.771997,91.8160028 330.548001,91.256 C331.324005,90.6959972 331.712001,89.7920062 331.712001,88.544 L331.712001,88.448 C331.712001,87.7919967 331.608002,87.2400022 331.400001,86.792 C331.192,86.3439978 330.896003,85.9840014 330.512001,85.712 C330.127999,85.4399986 329.664004,85.2440006 329.120001,85.124 C328.575998,85.0039994 327.968005,84.944 327.296001,84.944 L323.864001,84.944 L323.864001,92.096 L327.296001,92.096 Z M342.920001,84.944 L337.592001,84.944 L337.592001,83.84 L349.568001,83.84 L349.568001,84.944 L344.240001,84.944 L344.240001,101 L342.920001,101 L342.920001,84.944 Z M360.896001,101.168 C358.959992,101.168 357.452007,100.632005 356.372001,99.56 C355.291996,98.4879946 354.752001,96.9200103 354.752001,94.856 L354.752001,83.84 L356.072001,83.84 L356.072001,94.712 C356.072001,96.5520092 356.479997,97.8999957 357.296001,98.756 C358.112005,99.6120043 359.319993,100.04 360.920001,100.04 C362.56801,100.04 363.803997,99.6080043 364.628001,98.744 C365.452005,97.8799957 365.864001,96.4320102 365.864001,94.4 L365.864001,83.84 L367.208001,83.84 L367.208001,94.592 C367.208001,96.6400102 366.688007,98.2479942 365.648001,99.416 C364.607996,100.584006 363.024012,101.168 360.896001,101.168 Z M378.008001,83.84 L379.784001,83.84 L385.952001,101 L384.608001,101 L382.712001,95.744 L374.984001,95.744 L373.112001,101 L371.840001,101 L378.008001,83.84 Z M375.368001,94.664 L382.328001,94.664 L378.848001,84.944 L375.368001,94.664 Z M391.448002,83.84 L392.792002,83.84 L392.792002,99.896 L401.120002,99.896 L401.120002,101 L391.448002,101 L391.448002,83.84 Z M419.840002,83.84 L421.616002,83.84 L427.784002,101 L426.440002,101 L424.544002,95.744 L416.816002,95.744 L414.944002,101 L413.672002,101 L419.840002,83.84 Z M417.200002,94.664 L424.160002,94.664 L420.680002,84.944 L417.200002,94.664 Z M439.616002,101.192 C438.319995,101.192 437.164007,100.976002 436.148002,100.544 C435.131997,100.111998 434.272005,99.5120038 433.568002,98.744 C432.863998,97.9759962 432.324004,97.0640053 431.948002,96.008 C431.572,94.9519947 431.384002,93.7920063 431.384002,92.528 L431.384002,92.336 C431.384002,91.0879938 431.588,89.9320053 431.996002,88.868 C432.404004,87.8039947 432.975998,86.8840039 433.712002,86.108 C434.448005,85.3319961 435.311997,84.7240022 436.304002,84.284 C437.296007,83.8439978 438.383996,83.624 439.568002,83.624 C440.384006,83.624 441.171998,83.723999 441.932002,83.924 C442.692006,84.124001 443.379999,84.4319979 443.996002,84.848 C444.612005,85.2640021 445.136,85.7919968 445.568002,86.432 C446.000004,87.0720032 446.296001,87.8399955 446.456002,88.736 L445.112002,88.736 C444.792,87.3119929 444.136007,86.2840032 443.144002,85.652 C442.151997,85.0199968 440.968009,84.704 439.592002,84.704 C438.551997,84.704 437.612006,84.8919981 436.772002,85.268 C435.931998,85.6440019 435.216005,86.1679966 434.624002,86.84 C434.031999,87.5120034 433.572003,88.3119954 433.244002,89.24 C432.916,90.1680046 432.752002,91.1919944 432.752002,92.312 L432.752002,92.504 C432.752002,93.6400057 432.904,94.6759953 433.208002,95.612 C433.512003,96.5480047 433.951999,97.3479967 434.528002,98.012 C435.104005,98.6760033 435.819998,99.1879982 436.676002,99.548 C437.532006,99.9080018 438.511996,100.088 439.616002,100.088 C440.624007,100.088 441.503998,99.9400015 442.256002,99.644 C443.008006,99.3479985 443.635999,98.9280027 444.140002,98.384 C444.644004,97.8399973 445.024001,97.1840038 445.280002,96.416 C445.536003,95.6479962 445.672002,94.7920047 445.688002,93.848 L445.688002,93.752 L440.408002,93.752 L440.408002,92.624 L446.984002,92.624 L446.984002,93.608 C446.984002,94.8400062 446.808004,95.9279953 446.456002,96.872 C446.104,97.8160047 445.604005,98.6079968 444.956002,99.248 C444.307999,99.8880032 443.532006,100.371998 442.628002,100.7 C441.723997,101.028002 440.720007,101.192 439.616002,101.192 Z M452.960002,83.84 L462.824002,83.84 L462.824002,84.944 L454.304002,84.944 L454.304002,91.64 L461.216002,91.64 L461.216002,92.744 L454.304002,92.744 L454.304002,99.896 L463.256002,99.896 L463.256002,101 L452.960002,101 L452.960002,83.84 Z M469.040002,83.84 L470.864002,83.84 L480.464002,99.152 L480.464002,83.84 L481.736002,83.84 L481.736002,101 L480.152002,101 L470.336002,85.328 L470.336002,101 L469.040002,101 L469.040002,83.84 Z M492.488002,84.944 L487.160002,84.944 L487.160002,83.84 L499.136002,83.84 L499.136002,84.944 L493.808002,84.944 L493.808002,101 L492.488002,101 L492.488002,84.944 Z M512.984002,83.84 L517.520002,83.84 C518.352006,83.84 519.123999,83.9279991 519.836002,84.104 C520.548006,84.2800009 521.168,84.5599981 521.696002,84.944 C522.224005,85.3280019 522.636001,85.8279969 522.932002,86.444 C523.228004,87.0600031 523.376002,87.7999957 523.376002,88.664 L523.376002,88.76 C523.376002,89.6400044 523.228004,90.3919969 522.932002,91.016 C522.636001,91.6400031 522.228005,92.147998 521.708002,92.54 C521.188,92.932002 520.572006,93.2159991 519.860002,93.392 C519.147999,93.5680009 518.376006,93.656 517.544002,93.656 L514.328002,93.656 L514.328002,101 L512.984002,101 L512.984002,83.84 Z M517.640002,92.576 C519.032009,92.576 520.111998,92.272003 520.880002,91.664 C521.648006,91.055997 522.032002,90.0880066 522.032002,88.76 L522.032002,88.664 C522.032002,87.9759966 521.928003,87.3920024 521.720002,86.912 C521.512001,86.4319976 521.212004,86.0480014 520.820002,85.76 C520.428,85.4719986 519.960005,85.2640006 519.416002,85.136 C518.872,85.0079994 518.264006,84.944 517.592002,84.944 L514.328002,84.944 L514.328002,92.576 L517.640002,92.576 Z M529.112002,83.84 L530.456002,83.84 L530.456002,99.896 L538.784002,99.896 L538.784002,101 L529.112002,101 L529.112002,83.84 Z M549.080002,83.84 L550.856002,83.84 L557.024002,101 L555.680002,101 L553.784002,95.744 L546.056002,95.744 L544.184002,101 L542.912002,101 L549.080002,83.84 Z M546.440002,94.664 L553.400002,94.664 L549.920002,84.944 L546.440002,94.664 Z M564.680003,84.944 L559.352003,84.944 L559.352003,83.84 L571.328003,83.84 L571.328003,84.944 L566.000003,84.944 L566.000003,101 L564.680003,101 L564.680003,84.944 Z M576.752003,83.84 L586.520003,83.84 L586.520003,84.944 L578.096003,84.944 L578.096003,91.76 L584.720003,91.76 L584.720003,92.864 L578.096003,92.864 L578.096003,101 L576.752003,101 L576.752003,83.84 Z M599.312003,100.064 C600.336008,100.064 601.271999,99.8720019 602.120003,99.488 C602.968007,99.1039981 603.696,98.5760034 604.304003,97.904 C604.912006,97.2319966 605.384001,96.4320046 605.720003,95.504 C606.056004,94.5759954 606.224003,93.5600055 606.224003,92.456 L606.224003,92.264 C606.224003,91.2239948 606.060004,90.2480046 605.732003,89.336 C605.404001,88.4239954 604.936006,87.6280034 604.328003,86.948 C603.72,86.2679966 602.988007,85.732002 602.132003,85.34 C601.275998,84.947998 600.320008,84.752 599.264003,84.752 C598.207997,84.752 597.252007,84.9439981 596.396003,85.328 C595.539998,85.7120019 594.808006,86.2399966 594.200003,86.912 C593.592,87.5840034 593.120004,88.3839954 592.784003,89.312 C592.448001,90.2400046 592.280003,91.2399946 592.280003,92.312 L592.280003,92.504 C592.280003,93.5920054 592.460001,94.5999954 592.820003,95.528 C593.180005,96.4560046 593.676,97.2559966 594.308003,97.928 C594.940006,98.6000034 595.683998,99.1239981 596.540003,99.5 C597.396007,99.8760019 598.319998,100.064 599.312003,100.064 Z M599.312003,101.192 C598.079997,101.192 596.952008,100.964002 595.928003,100.508 C594.903998,100.051998 594.020006,99.4360039 593.276003,98.66 C592.531999,97.8839961 591.952005,96.9680053 591.536003,95.912 C591.120001,94.8559947 590.912003,93.728006 590.912003,92.528 L590.912003,92.336 C590.912003,91.1199939 591.120001,89.9840053 591.536003,88.928 C591.952005,87.8719947 592.531999,86.9520039 593.276003,86.168 C594.020006,85.3839961 594.903998,84.7680022 595.928003,84.32 C596.952008,83.8719978 598.063997,83.648 599.264003,83.648 C600.480009,83.648 601.595998,83.8719978 602.612003,84.32 C603.628008,84.7680022 604.507999,85.3799961 605.252003,86.156 C605.996006,86.9320039 606.576001,87.8479947 606.992003,88.904 C607.408005,89.9600053 607.616003,91.087994 607.616003,92.288 L607.616003,92.48 C607.616003,93.6960061 607.408005,94.8319947 606.992003,95.888 C606.576001,96.9440053 606.000006,97.8639961 605.264003,98.648 C604.527999,99.4320039 603.652008,100.051998 602.636003,100.508 C601.619998,100.964002 600.512009,101.192 599.312003,101.192 Z M613.568003,83.84 L618.272003,83.84 C619.104007,83.84 619.875999,83.9239992 620.588003,84.092 C621.300006,84.2600008 621.916,84.5279982 622.436003,84.896 C622.956005,85.2640018 623.364001,85.7399971 623.660003,86.324 C623.956004,86.9080029 624.104003,87.6159958 624.104003,88.448 L624.104003,88.544 C624.104003,89.2640036 623.992004,89.8879974 623.768003,90.416 C623.544002,90.9440026 623.236005,91.3879982 622.844003,91.748 C622.452001,92.1080018 621.984006,92.3959989 621.440003,92.612 C620.896,92.8280011 620.304006,92.9839995 619.664003,93.08 L625.112003,101 L623.624003,101 L618.248003,93.176 L614.912003,93.176 L614.912003,101 L613.568003,101 L613.568003,83.84 Z M618.344003,92.096 C619.73601,92.096 620.819999,91.8160028 621.596003,91.256 C622.372007,90.6959972 622.760003,89.7920062 622.760003,88.544 L622.760003,88.448 C622.760003,87.7919967 622.656004,87.2400022 622.448003,86.792 C622.240002,86.3439978 621.944005,85.9840014 621.560003,85.712 C621.176001,85.4399986 620.712006,85.2440006 620.168003,85.124 C619.624,85.0039994 619.016006,84.944 618.344003,84.944 L614.912003,84.944 L614.912003,92.096 L618.344003,92.096 Z M630.608003,83.84 L632.528003,83.84 L638.576003,98.576 L644.648003,83.84 L646.520003,83.84 L646.520003,101 L645.200003,101 L645.200003,85.52 L638.744003,101 L638.312003,101 L631.856003,85.52 L631.856003,101 L630.608003,101 L630.608003,83.84 Z" id="ACCENTURE-VIRTUAL-AG" fill="#000000"></path>
    </g>
</svg>
