<?xml version="1.0" encoding="UTF-8"?>
<svg width="16px" height="16px" viewBox="0 0 16 16" version="1.1" xmlns="http://www.w3.org/2000/svg" xmlns:xlink="http://www.w3.org/1999/xlink">
    <!-- Generator: Sketch 51.3 (57544) - http://www.bohemiancoding.com/sketch -->
    <title>Edit_Icon_Green</title>
    <desc>Created with Sketch.</desc>
    <defs></defs>
    <g id="Edit_Icon_Green" stroke="none" stroke-width="1" fill="none" fill-rule="evenodd">
        <rect id="Rectangle-9-Copy" fill="#01CCAA" x="2" y="13" width="12" height="1"></rect>
        <rect id="Rectangle-9-Copy-2" fill="#01CCAA" x="2" y="2" width="6" height="1"></rect>
        <rect id="Rectangle-10" fill="#01CCAA" x="2" y="2" width="1" height="12"></rect>
        <rect id="Rectangle-10-Copy" fill="#01CCAA" x="13" y="8" width="1" height="6"></rect>
        <rect id="Rectangle-10-Copy-2" fill="#01CCAA" x="7" y="6" width="1" height="3"></rect>
        <rect id="Rectangle-10-Copy-6" fill="#01CCAA" transform="translate(13.651777, 2.351777) rotate(135.000000) translate(-13.651777, -2.351777) " x="13.1517768" y="0.230456304" width="1" height="4.24264069"></rect>
        <rect id="Rectangle-10-Copy-7" fill="#01CCAA" transform="translate(11.651777, 4.351777) rotate(135.000000) translate(-11.651777, -4.351777) " x="11.1517768" y="2.2304563" width="1" height="4.24264069"></rect>
        <rect id="Rectangle-10-Copy-4" fill="#01CCAA" transform="translate(10.060660, 3.660660) rotate(45.000000) translate(-10.060660, -3.660660) " x="9.56066017" y="-0.167766929" width="1" height="7.65685425"></rect>
        <rect id="Rectangle-10-Copy-5" fill="#01CCAA" transform="translate(12.360660, 5.931772) rotate(45.000000) translate(-12.360660, -5.931772) " x="11.8606604" y="2.10177227" width="1" height="7.65999985"></rect>
        <rect id="Rectangle-10-Copy-3" fill="#01CCAA" transform="translate(8.500000, 8.500000) rotate(90.000000) translate(-8.500000, -8.500000) " x="8" y="7" width="1" height="3"></rect>
    </g>
</svg>