<?xml version="1.0" encoding="UTF-8"?>
<svg width="43px" height="61px" viewBox="0 0 43 61" version="1.1" xmlns="http://www.w3.org/2000/svg" xmlns:xlink="http://www.w3.org/1999/xlink">
    <!-- Generator: Sketch 51.3 (57544) - http://www.bohemiancoding.com/sketch -->
    <title>Combined Shape</title>
    <desc>Created with Sketch.</desc>
    <defs></defs>
    <g id="Symbols" stroke="none" stroke-width="1" fill="none" fill-rule="evenodd">
        <g id="Icon/Voice/Green" fill="#FFFFFF" fill-rule="nonzero">
            <g id="noun_voice_1596417-copy">
                <path d="M21.5,5 C16.8055796,5 13,8.80557963 13,13.5 L13,30.5 C13,35.1944204 16.8055796,39 21.5,39 C26.1944204,39 30,35.1944204 30,30.5 L30,13.5 C30,8.80557963 26.1944204,5 21.5,5 Z M25.9240611,51.4522372 C25.9735239,51.6263148 26,51.8100655 26,52 L26,56 L37,56 C38.1045695,56 39,56.8954305 39,58 L39,59 C39,60.1045695 38.1045695,61 37,61 L6,61 C4.8954305,61 4,60.1045695 4,59 L4,58 C4,56.8954305 4.8954305,56 6,56 L17,56 L17,52 C17,51.8100655 17.0264761,51.6263148 17.0759389,51.4522372 C7.30384199,49.274562 0,40.027147 0,29 C0,27.6666667 0.666666667,27 2,27 C3.33333333,27 4,27.6666667 4,29 C4,39.4894272 11.8680559,47.9375 21.5,47.9375 C31.1319441,47.9375 39,39.4894272 39,29 C39.3333333,27.6666667 40,27 41,27 C42,27 42.6666667,27.6666667 43,29 C43,40.027147 35.696158,49.274562 25.9240611,51.4522372 Z M21.5,0.5 C28.6797017,0.5 34.5,6.32029825 34.5,13.5 L34.5,30.5 C34.5,37.6797017 28.6797017,43.5 21.5,43.5 C14.3202983,43.5 8.5,37.6797017 8.5,30.5 L8.5,13.5 C8.5,6.32029825 14.3202983,0.5 21.5,0.5 Z" id="Combined-Shape"></path>
            </g>
        </g>
    </g>
</svg>
