<?xml version="1.0" encoding="UTF-8"?>
<svg width="63px" height="63px" viewBox="0 0 63 63" version="1.1" xmlns="http://www.w3.org/2000/svg" xmlns:xlink="http://www.w3.org/1999/xlink">
    <!-- Generator: Sketch 51.3 (57544) - http://www.bohemiancoding.com/sketch -->
    <title>Combined Shape</title>
    <desc>Created with Sketch.</desc>
    <defs></defs>
    <g id="Symbols" stroke="none" stroke-width="1" fill="none" fill-rule="evenodd">
        <g id="Icon/Teams/Green" fill="#FFFFFF">
            <g id="Group-11">
                <g id="Group-10">
                    <path d="M37.8942566,0 L38,63 L0,56.710189 L0,6.39453113 L37.8942566,0 Z M8.67953571,20.0219833 L8.73288375,24.6865884 L15.2426149,24.6865884 L15.1365539,45.179655 L20.4288066,45.179655 L20.3230632,24.4243164 L27.4151771,24.3192818 L27.4678901,19.5499566 L8.67953571,20.0219833 Z M43.395712,13.1509867 C46.414592,13.1509867 48.861312,15.5725367 48.861312,18.55997 C48.861312,21.5470867 46.414592,23.9689533 43.395712,23.9689533 C41.745152,23.9689533 40.268992,23.2418867 39.266752,22.0971367 L39.266752,15.0228033 C40.268992,13.8780533 41.745152,13.1509867 43.395712,13.1509867 Z M51.689792,21.7264783 C51.689792,18.7393617 54.136832,16.317495 57.155712,16.317495 C60.174592,16.317495 62.621312,18.7393617 62.621312,21.7264783 C62.621312,24.7139117 60.174592,27.1354617 57.155712,27.1354617 C54.136832,27.1354617 51.689792,24.7139117 51.689792,21.7264783 Z M39.160096,26.8277883 L49.986656,26.8277883 L49.986656,47.1473383 C49.986656,49.2582383 44.386656,52.214005 39.160096,49.944455 L39.160096,26.8277883 Z M52.040096,29.8098383 L62.813216,29.8098383 C62.813216,29.8098383 62.733216,40.0223383 62.733216,42.1332383 C62.733216,42.8796217 61.426336,44.5224883 59.000096,45.3527883 C57.137696,45.9902383 54.507616,45.9332383 51.960096,45.9332383 C51.960096,44.244455 52.040096,29.8098383 52.040096,29.8098383 Z" id="Combined-Shape"></path>
                </g>
            </g>
        </g>
    </g>
</svg>
