<?xml version="1.0" encoding="UTF-8"?>
<svg width="80px" height="62px" viewBox="0 0 80 62" version="1.1" xmlns="http://www.w3.org/2000/svg" xmlns:xlink="http://www.w3.org/1999/xlink">
    <!-- Generator: Sketch 51.2 (57519) - http://www.bohemiancoding.com/sketch -->
    <title>Icon_Email_Active</title>
    <desc>Created with Sketch.</desc>
    <defs>
        <filter x="-10.6%" y="-10.5%" width="121.2%" height="127.4%" filterUnits="objectBoundingBox" id="filter-1">
            <feOffset dx="0" dy="2" in="SourceAlpha" result="shadowOffsetOuter1"></feOffset>
            <feGaussianBlur stdDeviation="2.5" in="shadowOffsetOuter1" result="shadowBlurOuter1"></feGaussianBlur>
            <feColorMatrix values="0 0 0 0 0   0 0 0 0 0   0 0 0 0 0  0 0 0 0.2 0" type="matrix" in="shadowBlurOuter1" result="shadowMatrixOuter1"></feColorMatrix>
            <feMerge>
                <feMergeNode in="shadowMatrixOuter1"></feMergeNode>
                <feMergeNode in="SourceGraphic"></feMergeNode>
            </feMerge>
        </filter>
    </defs>
    <g id="Icon_Email_Active" stroke="none" stroke-width="1" fill="none" fill-rule="evenodd">
        <g id="Mail" filter="url(#filter-1)" fill="#000000">
            <path d="M74.5454545,0 L5.45454545,0 C2.44208318,0 0,2.44926578 0,5.47058824 L0,56.5294118 C0,59.5507342 2.44208318,62 5.45454545,62 L74.5454545,62 C77.5579168,62 80,59.5507342 80,56.5294118 L80,5.47058824 C80,2.44926578 77.5579168,0 74.5454545,0 Z M74.5454545,52.6635294 L60.1090909,38.1847059 C59.03451,37.1804559 57.3599646,37.2100882 56.3213753,38.2517323 C55.2827859,39.2933763 55.2532405,40.9728468 56.2545455,42.0505882 L70.6909091,56.5294118 L9.30909091,56.5294118 L23.7454545,42.0505882 C24.7467595,40.9728468 24.7172141,39.2933763 23.6786247,38.2517323 C22.6400354,37.2100882 20.96549,37.1804559 19.8909091,38.1847059 L5.45454545,52.6635294 L5.45454545,17.5605882 L38.1818182,42.3058824 C39.1515152,43.0352941 40.4848485,43.0352941 41.4545455,42.3058824 L74.5090909,17.5423529 L74.5454545,52.6635294 Z M74.5454545,5.47058824 L74.5454545,10.7223529 L39.8727273,36.7076471 L5.45454545,10.7223529 L5.45454545,5.47058824 L74.5454545,5.47058824 Z" id="Shape"></path>
        </g>
    </g>
</svg>