<?xml version="1.0" encoding="UTF-8"?>
<svg width="11px" height="10px" viewBox="0 0 11 10" version="1.1" xmlns="http://www.w3.org/2000/svg" xmlns:xlink="http://www.w3.org/1999/xlink">
    <!-- Generator: Sketch 51.1 (57501) - http://www.bohemiancoding.com/sketch -->
    <title>Icon_FlowMove@3x</title>
    <desc>Created with Sketch.</desc>
    <defs></defs>
    <g id="Symbols" stroke="none" stroke-width="1" fill="none" fill-rule="evenodd">
        <g id="Flow_Controls" transform="translate(-15.000000, -95.000000)" fill="#cccccc">
            <g id="Move_Green" transform="translate(15.000000, 95.000000)">
                <rect id="Cross-01" transform="translate(5.500000, 5.000000) rotate(45.000000) translate(-5.500000, -5.000000) " x="5" y="-1" width="1" height="12"></rect>
                <rect id="Cross-02" transform="translate(5.500000, 5.000000) rotate(-45.000000) translate(-5.500000, -5.000000) " x="5" y="-1" width="1" height="12"></rect>
                <g id="Group" stroke-width="1">
                    <rect id="Rectangle" x="0.5" y="0" width="1" height="3"></rect>
                    <rect id="Rectangle-Copy-3" x="0.5" y="7" width="1" height="2.5"></rect>
                    <rect id="Rectangle-Copy-4" x="9.5" y="7" width="1" height="2.5"></rect>
                    <rect id="Rectangle-Copy" transform="translate(2.500000, 0.500000) rotate(90.000000) translate(-2.500000, -0.500000) " x="2" y="-0.5" width="1" height="2"></rect>
                    <rect id="Rectangle-Copy-2" transform="translate(8.500000, 0.500000) rotate(90.000000) translate(-8.500000, -0.500000) " x="8" y="-0.75" width="1" height="2.5"></rect>
                </g>
                <rect id="Rectangle-3" x="9.5" y="0" width="1" height="3"></rect>
                <rect id="Rectangle-4" x="0.5" y="9" width="3" height="1"></rect>
                <rect id="Rectangle-4-Copy" x="7.5" y="9" width="3" height="1"></rect>
            </g>
        </g>
    </g>
</svg>