<?xml version="1.0" encoding="UTF-8"?>
<svg width="16px" height="16px" viewBox="0 0 16 16" version="1.1" xmlns="http://www.w3.org/2000/svg" xmlns:xlink="http://www.w3.org/1999/xlink">
    <!-- Generator: Sketch 51.1 (57501) - http://www.bohemiancoding.com/sketch -->
    <title>Icon_Move_Green</title>
    <desc>Created with Sketch.</desc>
    <defs></defs>
    <g id="Icon_Move_Green" stroke="none" stroke-width="1" fill="none" fill-rule="evenodd">
        <rect id="Rectangle-14" fill="#01CCAA" x="3" y="7" width="6" height="1"></rect>
        <rect id="Rectangle-15" fill="#01CCAA" x="8" y="8" width="1" height="5"></rect>
        <rect id="Rectangle" fill="#01CCAA" x="1" y="7" width="1" height="1"></rect>
        <rect id="Rectangle-Copy" fill="#01CCAA" x="8" y="14" width="1" height="1"></rect>
        <g id="Group" transform="translate(9.500000, 4.500000)" fill="#01CCAA">
            <rect id="Rectangle-17" x="0" y="0" width="1" height="1"></rect>
            <rect id="Rectangle-17-Copy" x="0" y="1" width="1" height="1"></rect>
            <rect id="Rectangle-17-Copy-2" x="1" y="1" width="1" height="1"></rect>
        </g>
        <g id="Group-Copy-2" transform="translate(13.500000, 5.500000) rotate(-90.000000) translate(-13.500000, -5.500000) translate(12.500000, 4.500000)" fill="#01CCAA">
            <rect id="Rectangle-17" x="0" y="0" width="1" height="1"></rect>
            <rect id="Rectangle-17-Copy" x="0" y="1" width="1" height="1"></rect>
            <rect id="Rectangle-17-Copy-2" x="1" y="1" width="1" height="1"></rect>
        </g>
        <g id="Group-Copy" transform="translate(13.500000, 2.500000) rotate(180.000000) translate(-13.500000, -2.500000) translate(12.500000, 1.500000)" fill="#01CCAA">
            <rect id="Rectangle-17" x="0" y="0" width="1" height="1"></rect>
            <rect id="Rectangle-17-Copy" x="0" y="1" width="1" height="1"></rect>
            <rect id="Rectangle-17-Copy-2" x="1" y="1" width="1" height="1"></rect>
        </g>
        <g id="Group-Copy-3" transform="translate(10.500000, 2.500000) rotate(90.000000) translate(-10.500000, -2.500000) translate(9.500000, 1.500000)" fill="#01CCAA">
            <rect id="Rectangle-17" x="0" y="0" width="1" height="1"></rect>
            <rect id="Rectangle-17-Copy" x="0" y="1" width="1" height="1"></rect>
            <rect id="Rectangle-17-Copy-2" x="1" y="1" width="1" height="1"></rect>
        </g>
    </g>
</svg>