<?xml version="1.0" encoding="UTF-8"?>
<svg width="62px" height="62px" viewBox="0 0 62 62" version="1.1" xmlns="http://www.w3.org/2000/svg" xmlns:xlink="http://www.w3.org/1999/xlink">
    <!-- Generator: Sketch 51.2 (57519) - http://www.bohemiancoding.com/sketch -->
    <title>Icon_Web</title>
    <desc>Created with Sketch.</desc>
    <defs></defs>
    <g id="Icon_Web" stroke="none" stroke-width="1" fill="none" fill-rule="evenodd">
        <g id="Language-2" fill="#CCCCCC">
            <path d="M31,0 C13.8791728,0 0,13.8791728 0,31 C0,48.1208272 13.8791728,62 31,62 C48.1208272,62 62,48.1208272 62,31 C62,13.8791728 48.1208272,0 31,0 L31,0 Z M57.7022727,29.5909091 L47.9090909,29.5909091 C47.4863636,20.3331818 43.555,10.8640909 36.9745455,4.91772727 C48.6139311,7.5978104 57.0701877,17.6636876 57.7022727,29.5909091 L57.7022727,29.5909091 Z M28.1818182,7.20045455 L28.1818182,29.5909091 L18.3181818,29.5909091 C18.7268182,20.7559091 22.2072727,12.1322727 28.1818182,7.20045455 Z M28.1818182,33.8181818 L28.1818182,54.5740909 C22.6159091,49.6704545 19.1213636,41.7090909 18.3181818,33.8181818 L28.1818182,33.8181818 Z M32.4090909,55.2222727 L32.4090909,33.8181818 L43.6818182,33.8181818 C42.7518182,41.8359091 38.595,50.2904545 32.4090909,55.2222727 Z M32.4090909,29.5909091 L32.4090909,6.59454545 C39.06,11.5122727 43.2168182,20.6854545 43.6818182,29.5909091 L32.4090909,29.5909091 Z M24.1659091,5.14318182 C17.9940909,11.005 14.4713636,20.2204545 14.0909091,29.5909091 L4.29772727,29.5909091 C4.91775766,17.9952807 12.9421127,8.12134036 24.1659091,5.14318182 L24.1659091,5.14318182 Z M4.43863636,33.8181818 L14.1472727,33.8181818 C14.9363636,42.4418182 18.6422727,51.2204545 24.6168182,56.9554545 C13.6756024,54.2687177 5.58706254,45.0198442 4.38227273,33.8181818 L4.43863636,33.8181818 Z M36.7068182,57.1668182 C43.1397082,50.9853659 47.1398666,42.7000379 47.9795455,33.8181818 L57.8431818,33.8181818 C56.5467444,45.3539644 48.0071036,54.762332 36.6504545,57.1668182 L36.7068182,57.1668182 Z" id="Shape"></path>
        </g>
    </g>
</svg>