<?xml version="1.0" encoding="UTF-8"?>
<svg width="62px" height="62px" viewBox="0 0 62 62" version="1.1" xmlns="http://www.w3.org/2000/svg" xmlns:xlink="http://www.w3.org/1999/xlink">
    <!-- Generator: Sketch 51.3 (57544) - http://www.bohemiancoding.com/sketch -->
    <title>Icon/Web/Active</title>
    <desc>Created with Sketch.</desc>
    <defs></defs>
    <g id="Icon/Web/Active" stroke="none" stroke-width="1" fill="none" fill-rule="evenodd">
        <g id="Language-2" fill="#000000">
            <path d="M31,0 C13.8791728,0 0,13.8791728 0,31 C0,48.1208272 13.8791728,62 31,62 C48.1208272,62 62,48.1208272 62,31 C62,13.8791728 48.1208272,0 31,0 L31,0 Z M58,30 L48.0781781,30 C47.649898,20.6196459 43.6668933,11.0251285 37,5 C48.7922769,7.7155832 57.3596122,17.9147919 58,30 L58,30 Z M28,7 L28,29 L18,29 C18.4142857,20.3190686 21.9428571,11.845815 28,7 Z M28,34 L28,55 C22.3571429,50.0386965 18.8142857,41.9837067 18,34 L28,34 Z M32,55 L32,34 L43,34 C42.0925,41.8663594 38.03625,50.1612903 32,55 Z M32,30 L32,7 C38.49,11.9185049 42.54625,21.0931373 43,30 L32,30 Z M24,5 C17.787234,10.7544669 14.2411348,19.8011527 13.858156,29 L4,29 C4.62414406,17.61673 12.7017378,7.92361757 24,5 L24,5 Z M4.05571031,34 L13.6518106,34 C14.4317549,42.5724726 18.0947075,51.2990256 24,57 C13.1856075,54.3292035 5.19082468,45.1352032 4,34 L4.05571031,34 Z M37.0558511,57 C43.4302402,50.9108477 47.394021,42.7492342 48.2260638,34 L58,34 C56.7153524,45.363533 48.2533713,54.631417 37,57 L37.0558511,57 Z" id="Shape"></path>
        </g>
    </g>
</svg>