<?xml version="1.0" encoding="UTF-8"?>
<svg width="48px" height="48px" viewBox="0 0 48 48" version="1.1" xmlns="http://www.w3.org/2000/svg" xmlns:xlink="http://www.w3.org/1999/xlink">
    <!-- Generator: Sketch 51.1 (57501) - http://www.bohemiancoding.com/sketch -->
    <title>Icon_Channels_Green</title>
    <desc>Created with Sketch.</desc>
    <defs>
        <path d="M0,0 L5,5" id="path-1"></path>
    </defs>
    <g id="Icon_Channels_Green" stroke="none" stroke-width="1" fill="none" fill-rule="evenodd">
        <g id="Branch" transform="translate(8.000000, 8.000000)">
            <path d="M0,0 L16.5,16.5" id="Line-2" stroke="#01CCAA" stroke-linecap="square"></path>
            <mask id="mask-2" fill="white">
                <use xlink:href="#path-1"></use>
            </mask>
            <use id="Line-2-Copy" stroke="#292F32" opacity="0.04" stroke-linecap="square" xlink:href="#path-1"></use>
        </g>
        <path d="M12,34 L24.5,24.5" id="Line-3" stroke="#01CCAA" stroke-linecap="square"></path>
        <path d="M35,14 L24.5,24.5" id="Line" stroke="#01CCAA" stroke-linecap="square"></path>
        <path d="M42,42 L24.5,24.5" id="Line-4" stroke="#01CCAA" stroke-linecap="square"></path>
        <path d="M29.5,29.5 L24.5,24.5" id="Line-4-Copy" stroke="#292F32" opacity="0.04" stroke-linecap="square"></path>
        <g id="Antenna" transform="translate(18.000000, 18.000000)">
            <circle id="Bobble" fill="#01CCAA" cx="6" cy="6" r="6"></circle>
            <path d="M6,12 C9.3137085,12 12,9.3137085 12,6 C12,2.6862915 9.3137085,0 6,0 C7.33333333,1.790861 8,3.790861 8,6 C8,8.209139 7.33333333,10.209139 6,12 Z" id="Bobble---Shade" fill="#292F32" opacity="0.0399999991"></path>
        </g>
        <g id="Antenna-Copy" transform="translate(2.000000, 2.000000)">
            <circle id="Bobble" fill="#01CCAA" cx="6" cy="6" r="6"></circle>
            <path d="M6,12 C9.3137085,12 12,9.3137085 12,6 C12,2.6862915 9.3137085,0 6,0 C7.33333333,1.790861 8,3.790861 8,6 C8,8.209139 7.33333333,10.209139 6,12 Z" id="Bobble---Shade" fill="#292F32" opacity="0.0399999991"></path>
        </g>
        <g id="Antenna-Copy-2" transform="translate(8.000000, 30.000000)">
            <circle id="Bobble" fill="#01CCAA" cx="4" cy="4" r="4"></circle>
            <path d="M4,8 C6.209139,8 8,6.209139 8,4 C8,1.790861 6.209139,0 4,0 C4.88888889,1.19390733 5.33333333,2.52724067 5.33333333,4 C5.33333333,5.47275933 4.88888889,6.80609267 4,8 Z" id="Bobble---Shade" fill="#292F32" opacity="0.0399999991"></path>
        </g>
        <g id="Antenna-Copy-4" transform="translate(31.000000, 10.000000)">
            <circle id="Bobble" fill="#01CCAA" cx="4" cy="4" r="4"></circle>
            <path d="M4,8 C6.209139,8 8,6.209139 8,4 C8,1.790861 6.209139,0 4,0 C4.88888889,1.19390733 5.33333333,2.52724067 5.33333333,4 C5.33333333,5.47275933 4.88888889,6.80609267 4,8 Z" id="Bobble---Shade" fill="#292F32" opacity="0.0399999991"></path>
        </g>
        <g id="Antenna-Copy-3" transform="translate(40.000000, 40.000000)">
            <circle id="Bobble" fill="#01CCAA" cx="2" cy="2" r="2"></circle>
            <path d="M2,4 C3.1045695,4 4,3.1045695 4,2 C4,0.8954305 3.1045695,0 2,0 C2.44444444,0.596953667 2.66666667,1.26362033 2.66666667,2 C2.66666667,2.73637967 2.44444444,3.40304633 2,4 Z" id="Bobble---Shade" fill="#292F32" opacity="0.0399999991"></path>
        </g>
    </g>
</svg>