<?xml version="1.0" encoding="UTF-8"?>
<svg width="68px" height="62px" viewBox="0 0 68 62" version="1.1" xmlns="http://www.w3.org/2000/svg" xmlns:xlink="http://www.w3.org/1999/xlink">
    <!-- Generator: Sketch 51.2 (57519) - http://www.bohemiancoding.com/sketch -->
    <title>Icon_SMS</title>
    <desc>Created with Sketch.</desc>
    <defs></defs>
    <g id="Icon_SMS" stroke="none" stroke-width="1" fill="none" fill-rule="evenodd">
        <g id="Слой_151" fill="#CCCCCC">
            <path d="M54.0909095,4.64953642 C59.2120952,4.64953642 63.3636365,8.81287314 63.3636365,13.9486092 L63.3636365,38.7461368 C63.3636365,43.8818729 59.2120952,48.0452096 54.0909095,48.0452096 L25.886365,48.0452096 L15.4545472,57.3442825 L15.4545472,48.0452096 L13.9090927,48.0452096 C8.78790697,48.0452096 4.63636569,43.8818729 4.63636569,38.7461368 L4.63636569,13.9486092 C4.63636569,8.81287314 8.78790697,4.64953642 13.9090927,4.64953642 L54.0909095,4.64953642 L54.0909095,4.64953642 Z M54.0909095,3.52394061e-13 L13.9090927,3.52394061e-13 C6.22731412,3.52394061e-13 2.20309201e-06,6.24500508 2.20309201e-06,13.9486092 L2.20309201e-06,38.7461368 C-0.0036309512,45.2584284 4.48671304,50.9066049 10.8181837,52.35378 L10.8181837,57.3442825 C10.8157844,59.1789374 11.8894133,60.8434697 13.5589833,61.5935622 C15.2285532,62.3436547 17.1818596,62.0390423 18.5454561,60.8159363 L27.6636377,52.694746 L54.0909095,52.694746 C61.7726881,52.694746 68,46.449741 68,38.7461368 L68,13.9486092 C68,6.24500508 61.7726881,0 54.0909095,0 L54.0909095,3.52394061e-13 Z" id="Shape"></path>
            <circle id="Oval" cx="34.5" cy="26.5" r="2.5"></circle>
            <circle id="Oval" cx="50.5" cy="26.5" r="2.5"></circle>
            <circle id="Oval" cx="19.5" cy="26.5" r="2.5"></circle>
        </g>
    </g>
</svg>