<?xml version="1.0" encoding="UTF-8"?>
<svg width="72px" height="72px" viewBox="0 0 72 72" version="1.1" xmlns="http://www.w3.org/2000/svg" xmlns:xlink="http://www.w3.org/1999/xlink">
    <!-- Generator: Sketch 52.6 (67491) - http://www.bohemiancoding.com/sketch -->
    <title>Icon_WhatsApp_Active</title>
    <desc>Created with Sketch.</desc>
    <defs>
        <filter x="-21.8%" y="-21.8%" width="143.5%" height="143.5%" filterUnits="objectBoundingBox" id="filter-1">
            <feOffset dx="0" dy="2" in="SourceAlpha" result="shadowOffsetOuter1"></feOffset>
            <feGaussianBlur stdDeviation="2.5" in="shadowOffsetOuter1" result="shadowBlurOuter1"></feGaussianBlur>
            <feColorMatrix values="0 0 0 0 0   0 0 0 0 0   0 0 0 0 0  0 0 0 0.2 0" type="matrix" in="shadowBlurOuter1" result="shadowMatrixOuter1"></feColorMatrix>
            <feMerge>
                <feMergeNode in="shadowMatrixOuter1"></feMergeNode>
                <feMergeNode in="SourceGraphic"></feMergeNode>
            </feMerge>
        </filter>
    </defs>
    <g id="Symbols" stroke="none" stroke-width="1" fill="none" fill-rule="evenodd">
        <g id="Icon/WhatsApp/Active" transform="translate(5.000000, 3.000000)" fill="#000000" fill-rule="nonzero">
            <g id="Icon_WhatsApp_Active" filter="url(#filter-1)">
                <path d="M62,30.2015778 C62,46.8816444 48.3744667,60.4031556 31.5635111,60.4031556 C26.2266889,60.4031556 21.2129556,59.0391556 16.8509111,56.6452667 L0,62 L5.49388889,45.7959556 C2.72248889,41.2451556 1.12633333,35.9076444 1.12633333,30.2015778 C1.12633333,13.5215111 14.7532444,0 31.5635111,0 C48.3758444,0 62,13.5215111 62,30.2015778 Z M31.5635111,4.80982222 C17.4523111,4.80982222 5.97404444,16.2006 5.97404444,30.2015778 C5.97404444,35.7574667 7.78513333,40.9027778 10.8486222,45.0884667 L7.65148889,54.5186667 L17.4853778,51.3931778 C21.5257111,54.0460889 26.3658444,55.5933333 31.5642,55.5933333 C45.6733333,55.5933333 57.1536667,44.2039333 57.1536667,30.2029556 C57.1536667,16.2019778 45.6740222,4.80982222 31.5635111,4.80982222 Z M46.9333111,37.1572889 C46.7452444,36.8493556 46.2485556,36.6633556 45.5031778,36.2934222 C44.7564222,35.9234889 41.0874,34.1316889 40.4054,33.8857556 C39.7213333,33.6391333 39.2225778,33.5151333 38.7258889,34.2556889 C38.2292,34.9969333 36.7990667,36.6633556 36.363,37.1572889 C35.9276222,37.6526 35.4929333,37.7146 34.7461778,37.3439778 C34.0008,36.9740444 31.5972667,36.1914667 28.7473333,33.6701333 C26.5298,31.7081778 25.0321556,29.2860444 24.5967778,28.5441111 C24.1620889,27.8035556 24.5513111,27.4033111 24.924,27.0347556 C25.2601778,26.7027111 25.6707556,26.1702 26.0434444,25.7382667 C26.4175111,25.3056444 26.5415111,24.9977111 26.7888222,24.5030889 C27.0388889,24.0091556 26.9142,23.5772222 26.7268222,23.2059111 C26.5408222,22.8359778 25.0473111,19.1931333 24.4259333,17.7106444 C23.8045556,16.2295333 23.1838667,16.4761556 22.7478,16.4761556 C22.3131111,16.4761556 21.8150444,16.4141556 21.3176667,16.4141556 C20.8202889,16.4141556 20.0115333,16.5994667 19.3274667,17.3400222 C18.6440889,18.0812667 16.7172667,19.8723778 16.7172667,23.5145333 C16.7172667,27.1573778 19.3894667,30.6769111 19.7635333,31.1701556 C20.1362222,31.6634 24.9233111,39.3817111 32.5079778,42.346 C40.0933333,45.3089111 40.0933333,44.3203556 41.4614667,44.1963556 C42.8282222,44.0730444 45.8744889,42.4059333 46.4986222,40.6782 C47.1186222,38.9477111 47.1186222,37.4659111 46.9333111,37.1572889 Z" id="WhatsApp"></path>
            </g>
        </g>
    </g>
</svg>