<?xml version="1.0" encoding="UTF-8"?>
<svg width="11px" height="10px" viewBox="0 0 11 10" version="1.1" xmlns="http://www.w3.org/2000/svg" xmlns:xlink="http://www.w3.org/1999/xlink">
    <!-- Generator: Sketch 51.2 (57519) - http://www.bohemiancoding.com/sketch -->
    <title>Centre /Grey </title>
    <desc>Created with Sketch.</desc>
    <defs></defs>
    <g id="Centre-/Grey-" stroke="none" stroke-width="1" fill="none" fill-rule="evenodd">
        <path d="M1.25,5.5 L1,5.5 L1.5,6 L1.5,5 L1,5.5 L1.25,5.5 Z M2.27500453,5.5 L3.05000906,5.5 L3.05000906,5 L2.56000243,4.9005339 C2.52020711,5.09658029 2.5,5.29713952 2.5,5.5 C2.5,5.70286048 2.52020711,5.90341971 2.56000243,6.0994661 L3.05000906,6 L3.05000906,5.5 L2.27500453,5.5 Z M5.5,9.75 L5.5,10 L6,9.5 L5,9.5 L5.5,10 L5.5,9.75 Z M5.5,8.72499547 L5.5,7.94999094 L5,7.94999094 L4.9005339,8.43999757 C5.09658029,8.47979289 5.29713952,8.5 5.5,8.5 C5.70286048,8.5 5.90341971,8.47979289 6.0994661,8.43999757 L6,7.94999094 L5.5,7.94999094 L5.5,8.72499547 Z M8.72499547,5.5 L10,5.5 L9.5,5 L9.5,6 L10,5.5 L8.72499547,5.5 Z M8.72499547,5.5 L7.94999094,5.5 L7.94999094,6 L8.43999757,6.0994661 C8.47979289,5.90341971 8.5,5.70286048 8.5,5.5 C8.5,5.29713952 8.47979289,5.09658029 8.43999757,4.9005339 L7.94999094,5 L7.94999094,5.5 L8.72499547,5.5 Z M5.5,1.25 L5.5,1 L5,1.5 L6,1.5 L5.5,1 L5.5,1.25 Z M5.5,2.27500453 L5.5,3.05000906 L6,3.05000906 L6.0994661,2.56000243 C5.90341971,2.52020711 5.70286048,2.5 5.5,2.5 C5.29713952,2.5 5.09658029,2.52020711 4.9005339,2.56000243 L5,3.05000906 L5.5,3.05000906 L5.5,2.27500453 Z" id="Combined-Shape" stroke="#CCCCCC" fill-rule="nonzero"></path>
        <circle id="Oval" stroke="#CCCCCC" fill-rule="nonzero" transform="translate(5.500000, 5.500000) rotate(-360.000000) translate(-5.500000, -5.500000) " cx="5.5" cy="5.5" r="2.5"></circle>
        <circle id="Oval-Copy" fill="#CCCCCC" fill-rule="nonzero" transform="translate(5.500000, 5.500000) rotate(-360.000000) translate(-5.500000, -5.500000) " cx="5.5" cy="5.5" r="1"></circle>
    </g>
</svg>