<?xml version="1.0" encoding="UTF-8"?>
<svg width="16px" height="16px" viewBox="0 0 16 16" version="1.1" xmlns="http://www.w3.org/2000/svg" xmlns:xlink="http://www.w3.org/1999/xlink">
    <!-- Generator: Sketch 51.3 (57544) - http://www.bohemiancoding.com/sketch -->
    <title>Redo_Icon_Green</title>
    <desc>Created with Sketch.</desc>
    <defs></defs>
    <g id="Redo_Icon_Green" stroke="none" stroke-width="1" fill="none" fill-rule="evenodd">
        <g id="Group" transform="translate(8.000000, 7.500000) scale(-1, 1) translate(-8.000000, -7.500000) translate(2.000000, 2.000000)">
            <path d="M4.82842712,2.53553391 L4.82842712,5.53553391 L3.82842712,5.53553391 L3.82842712,2.53553391 L0.828427125,2.53553391 L0.828427125,1.53553391 L4.82842712,1.53553391 L4.82842712,2.53553391 Z" id="Arrow-Head" fill="#01CCAA" transform="translate(2.828427, 3.535534) rotate(-135.000000) translate(-2.828427, -3.535534) "></path>
            <path d="M3,9.5 C5.56209717,9.5 7.3954305,9.5 8.5,9.5 C10.1568542,9.5 11.5,8.15685425 11.5,6.5 C11.5,4.84314575 10.1568542,3.5 8.5,3.5 C7.3954305,3.5 4.8954305,3.5 1,3.5" id="Line" stroke="#01CCAA" fill-rule="nonzero"></path>
            <rect id="Dot" fill="#01CCAA" fill-rule="nonzero" x="1" y="9" width="1" height="1"></rect>
        </g>
    </g>
</svg>