<?xml version="1.0" encoding="UTF-8"?>
<svg width="11px" height="10px" viewBox="0 0 11 10" version="1.1" xmlns="http://www.w3.org/2000/svg" xmlns:xlink="http://www.w3.org/1999/xlink">
    <!-- Generator: Sketch 51.2 (57519) - http://www.bohemiancoding.com/sketch -->
    <title>Number_Icon_Black</title>
    <desc>Created with Sketch.</desc>
    <defs></defs>
    <g id="Number_Icon_Black" stroke="none" stroke-width="1" fill="none" fill-rule="evenodd">
        <path d="M1.3725,4.6275 L0.24,5.4 L0.24,4.5225 L1.485,3.6375 L2.3775,3.6375 L2.3775,9 L1.3725,9 L1.3725,4.6275 Z M2.61833331,8.82 L4.64333331,6.6825 C4.89833459,6.41249865 5.09833259,6.15500123 5.24333331,5.91 C5.38833404,5.66499878 5.46083331,5.41500127 5.46083331,5.16 C5.46083331,4.90499873 5.392084,4.70500072 5.25458331,4.56 C5.11708263,4.41499928 4.91833461,4.3425 4.65833331,4.3425 C4.38833196,4.3425 4.17208413,4.42499917 4.00958331,4.59 C3.8470825,4.75500082 3.74333354,5.0274981 3.69833331,5.4075 L2.78333331,5.4075 C2.81833349,4.81749705 3.00208165,4.3625016 3.33458331,4.0425 C3.66708498,3.7224984 4.11833046,3.5625 4.68833331,3.5625 C4.96333469,3.5625 5.21083221,3.60124961 5.43083331,3.67875 C5.65083441,3.75625039 5.83708255,3.86374931 5.98958331,4.00125 C6.14208408,4.13875069 6.25833291,4.30499903 6.33833331,4.5 C6.41833371,4.69500098 6.45833331,4.90999883 6.45833331,5.145 C6.45833331,5.49500175 6.36333426,5.82499845 6.17333331,6.135 C5.98333236,6.44500155 5.72833491,6.75499845 5.40833331,7.065 L4.21583331,8.2275 L6.49583331,8.2275 L6.49583331,9 L2.61833331,9 L2.61833331,8.82 Z M8.48416663,9.075 C8.16416503,9.075 7.88166785,9.03250043 7.63666663,8.9475 C7.3916654,8.86249958 7.18416748,8.74375076 7.01416663,8.59125 C6.84416578,8.43874924 6.71291709,8.25625106 6.62041663,8.04375 C6.52791616,7.83124894 6.47666668,7.59750127 6.46666663,7.3425 L7.37416663,7.3425 C7.39916675,7.6225014 7.49666578,7.85624906 7.66666663,8.04375 C7.83666748,8.23125094 8.10166483,8.325 8.46166663,8.325 C8.81166838,8.325 9.0691658,8.24750077 9.23416663,8.0925 C9.39916745,7.93749922 9.48166663,7.72500135 9.48166663,7.455 C9.48166663,6.86999708 9.15916985,6.5775 8.51416663,6.5775 L8.10166663,6.5775 L8.10166663,5.865 L8.48416663,5.865 C8.79416818,5.865 9.02041591,5.79750068 9.16291663,5.6625 C9.30541734,5.52749932 9.37666663,5.33250128 9.37666663,5.0775 C9.37666663,4.8574989 9.30791731,4.67625071 9.17041663,4.53375 C9.03291594,4.39124929 8.82416803,4.32 8.54416663,4.32 C8.2591652,4.32 8.0291675,4.3999992 7.85416663,4.56 C7.67916575,4.7200008 7.57666678,4.93499865 7.54666663,5.205 L6.66166663,5.205 C6.6766667,4.97499885 6.72916618,4.75875101 6.81916663,4.55625 C6.90916708,4.35374899 7.03541581,4.18000073 7.19791663,4.035 C7.36041744,3.88999927 7.55666548,3.77500042 7.78666663,3.69 C8.01666778,3.60499957 8.2741652,3.5625 8.55916663,3.5625 C8.83916803,3.5625 9.08916553,3.59999962 9.30916663,3.675 C9.52916773,3.75000038 9.71416588,3.85249935 9.86416663,3.9825 C10.0141674,4.11250065 10.1291662,4.26499913 10.2091666,4.44 C10.289167,4.61500088 10.3291666,4.802499 10.3291666,5.0025 C10.3291666,5.30750152 10.2491674,5.55374906 10.0891666,5.74125 C9.92916583,5.92875094 9.71916793,6.0724995 9.45916663,6.1725 C9.7741682,6.24250035 10.0254157,6.38624891 10.2129166,6.60375 C10.4004176,6.82125109 10.4941666,7.1099982 10.4941666,7.47 C10.4941666,7.72000125 10.4466671,7.94374901 10.3516666,8.14125 C10.2566662,8.33875099 10.1229175,8.50624931 9.95041663,8.64375 C9.77791576,8.78125069 9.56666788,8.88749963 9.31666663,8.9625 C9.06666538,9.03750038 8.78916815,9.075 8.48416663,9.075 Z" id="123" fill="#292F32"></path>
    </g>
</svg>