<?xml version="1.0" encoding="UTF-8"?>
<svg width="11px" height="10px" viewBox="0 0 11 10" version="1.1" xmlns="http://www.w3.org/2000/svg" xmlns:xlink="http://www.w3.org/1999/xlink">
    <!-- Generator: Sketch 51.2 (57519) - http://www.bohemiancoding.com/sketch -->
    <title>String_Icon_Black</title>
    <desc>Created with Sketch.</desc>
    <defs></defs>
    <g id="String_Icon_Black" stroke="none" stroke-width="1" fill="none" fill-rule="evenodd">
        <path d="M3.128,2.28 L4.52,2.28 L6.408,8 L5.304,8 L4.848,6.584 L2.664,6.584 L2.216,8 L1.216,8 L3.128,2.28 Z M2.912,5.808 L4.6,5.808 L3.76,3.152 L2.912,5.808 Z M7.61688887,8.08 C7.42488791,8.08 7.24355639,8.05600024 7.07288887,8.008 C6.90222135,7.95999976 6.75422283,7.88666716 6.62888887,7.788 C6.50355491,7.68933284 6.40355591,7.56133412 6.32888887,7.404 C6.25422183,7.24666588 6.21688887,7.05866776 6.21688887,6.84 C6.21688887,6.59466544 6.27288831,6.38800084 6.38488887,6.22 C6.49688943,6.05199916 6.64888791,5.91600052 6.84088887,5.812 C7.03288983,5.70799948 7.25955423,5.63200024 7.52088887,5.584 C7.78222351,5.53599976 8.06222071,5.512 8.36088887,5.512 L8.88088887,5.512 L8.88088887,5.296 C8.88088887,5.01333192 8.82622275,4.80266736 8.71688887,4.664 C8.60755499,4.52533264 8.40889031,4.456 8.12088887,4.456 C7.86488759,4.456 7.67422283,4.51333276 7.54888887,4.628 C7.42355491,4.74266724 7.34755567,4.90399896 7.32088887,5.112 L6.38488887,5.112 C6.40622231,4.86666544 6.46755503,4.6573342 6.56888887,4.484 C6.67022271,4.3106658 6.80088807,4.16800056 6.96088887,4.056 C7.12088967,3.94399944 7.30488783,3.8613336 7.51288887,3.808 C7.72088991,3.7546664 7.94222103,3.728 8.17688887,3.728 C8.41155671,3.728 8.63022119,3.75333308 8.83288887,3.804 C9.03555655,3.85466692 9.21288811,3.9399994 9.36488887,4.06 C9.51688963,4.1800006 9.63555511,4.33733236 9.72088887,4.532 C9.80622263,4.72666764 9.84888887,4.96799856 9.84888887,5.256 L9.84888887,8 L8.89688887,8 L8.89688887,7.488 C8.75822151,7.66933424 8.59022319,7.8133328 8.39288887,7.92 C8.19555455,8.0266672 7.93689047,8.08 7.61688887,8.08 Z M7.84888887,7.384 C8.14755703,7.384 8.39422123,7.3106674 8.58888887,7.164 C8.78355651,7.0173326 8.88088887,6.80800136 8.88088887,6.536 L8.88088887,6.12 L8.38488887,6.12 C8.01688703,6.12 7.72355663,6.16933284 7.50488887,6.268 C7.28622111,6.36666716 7.17688887,6.54399872 7.17688887,6.8 C7.17688887,6.97600088 7.22888835,7.1173328 7.33288887,7.224 C7.43688939,7.3306672 7.60888767,7.384 7.84888887,7.384 Z" id="Aa" fill="#292F32"></path>
    </g>
</svg>